<?xml version="1.0" encoding="UTF-8" standalone="no"?>
<svg
   id="Layer_5"
   enable-background="new 0 0 64 64"
   height="512"
   viewBox="0 0 64 64"
   width="512"
   version="1.1"
   sodipodi:docname="machine-learning-daimon-page.svg"
   inkscape:version="1.1.2 (0a00cf5339, 2022-02-04)"
   xmlns:inkscape="http://www.inkscape.org/namespaces/inkscape"
   xmlns:sodipodi="http://sodipodi.sourceforge.net/DTD/sodipodi-0.dtd"
   xmlns="http://www.w3.org/2000/svg"
   xmlns:svg="http://www.w3.org/2000/svg">
  <defs
     id="defs145" />
  <sodipodi:namedview
     id="namedview143"
     pagecolor="#505050"
     bordercolor="#eeeeee"
     borderopacity="1"
     inkscape:pageshadow="0"
     inkscape:pageopacity="0"
     inkscape:pagecheckerboard="0"
     showgrid="false"
     inkscape:zoom="1"
     inkscape:cx="-52.5"
     inkscape:cy="406"
     inkscape:window-width="1918"
     inkscape:window-height="1161"
     inkscape:window-x="0"
     inkscape:window-y="38"
     inkscape:window-maximized="1"
     inkscape:current-layer="Layer_5"
     inkscape:snap-midpoints="true"
     showguides="true"
     inkscape:guide-bbox="true">
    <sodipodi:guide
       position="35.430151,57.393719"
       orientation="1,0"
       id="guide12165" />
    <sodipodi:guide
       position="31.460938,56.25"
       orientation="0,-1"
       id="guide12167" />
    <sodipodi:guide
       position="47.901417,48.480082"
       orientation="1,0"
       id="guide12169" />
    <sodipodi:guide
       position="48.71875,56.65625"
       orientation="1,0"
       id="guide12171" />
  </sodipodi:namedview>
  <path
     d="m 37.860536,39.496835 v 2.166636 H 23.777399 v -2.166636 h 4.333273 5.416591 z"
     fill="#969faa"
     id="path94"
     style="stroke-width:0.541659" />
  <g
     fill="#aab2bd"
     id="g102"
     transform="matrix(0.5416591,0,0,0.5416591,17.27749,8.0806066)">
    <path
       d="M 36.55,55.11 38,58 h -8 v -4 h 4.76 c 0.76,0 1.45,0.43 1.79,1.11 z"
       id="path96" />
    <path
       d="m 30,54 v 4 H 20 v -4 -4 h 10 z"
       id="path98" />
    <path
       d="M 13.45,55.11 C 13.79,54.43 14.48,54 15.24,54 H 20 v 4 h -8 z"
       id="path100" />
  </g>
  <path
     d="m 43.277127,30.830289 v 2.166636 c 0,1.197067 -0.96957,2.166637 -2.166637,2.166637 h -7.583227 -5.416591 -7.583228 c -1.197066,0 -2.166636,-0.96957 -2.166636,-2.166637 v -2.166636 h 7.583227 v 1.083318 c 0,0.595825 0.487494,1.083318 1.083319,1.083318 h 2.166636 3.249955 2.166636 c 0.595825,0 1.083318,-0.487493 1.083318,-1.083318 v -1.083318 z"
     fill="#ccd1d9"
     id="path104"
     style="stroke-width:0.541659" />
  <path
     d="m 25.944035,30.830289 v 1.083318 c 0,0.595825 0.487494,1.083318 1.083319,1.083318 h 7.583227 c 0.595825,0 1.083318,-0.487493 1.083318,-1.083318 v -1.083318 z"
     fill="#ff826e"
     id="path106"
     style="stroke-width:0.541659" />
  <path
     d="m 41.11049,22.163743 c 0,-1.414271 0.905113,-2.614588 2.166637,-3.060915 V 17.830471 H 20.527444 c -1.196524,0 -2.166636,0.970111 -2.166636,2.166636 v 10.833182 h 24.916319 v -5.60563 C 42.015603,24.778332 41.11049,23.578015 41.11049,22.163743 Z"
     fill="#69d6f4"
     id="path108"
     style="stroke-width:0.541659" />
  <path
     d="m 29.19399,22.163743 v 1.624978 c 0,0.747489 -0.303329,1.424563 -0.790822,1.917473 -0.49291,0.487493 -1.169984,0.790822 -1.917473,0.790822 -1.49498,0 -2.708296,-1.213316 -2.708296,-2.708295 v -1.624978 h 1.624977 2.166637 z"
     fill="#aab2bd"
     id="path112"
     style="stroke-width:0.541659" />
  <path
     d="m 26.485695,9.1639246 c -1.798309,0 -3.423286,0.725823 -4.598686,1.9012244 -1.1754,1.1754 -1.901224,2.800377 -1.901224,4.598685 v 0.01625 c 0,0.742073 0.129999,1.473313 0.368329,2.155803 0.319578,0.909988 0.839571,1.744143 1.532895,2.437466 l 1.89039,1.89039 h 1.624977 2.166637 1.624977 l 1.89039,-1.89039 c 0.693324,-0.693323 1.213317,-1.532895 1.532896,-2.442882 0.23833,-0.682491 0.368328,-1.408314 0.368328,-2.150387 v -0.01625 c 0,-3.5912 -2.90871,-6.4999094 -6.499909,-6.4999094 z"
     fill="#ffeaa7"
     id="path114"
     style="stroke-width:0.541659" />
  <path
     d="m 25.402376,15.122175 v 1.624977 h -1.624977 c -0.449577,0 -0.855821,-0.184164 -1.148317,-0.47666 -0.292496,-0.292495 -0.47666,-0.69874 -0.47666,-1.148317 0,-0.449577 0.184164,-0.855821 0.47666,-1.148317 0.292496,-0.292496 0.69874,-0.47666 1.148317,-0.47666 0.899154,0 1.624977,0.725823 1.624977,1.624977 z"
     fill="#fcd770"
     id="path116"
     style="stroke-width:0.541659" />
  <path
     d="m 30.342307,13.973858 c 0.292496,0.292496 0.47666,0.69874 0.47666,1.148317 0,0.899154 -0.725823,1.624977 -1.624977,1.624977 h -1.624977 v -1.624977 c 0,-0.449577 0.184164,-0.855821 0.47666,-1.148317 0.292496,-0.292496 0.69874,-0.47666 1.148317,-0.47666 0.449577,0 0.855821,0.184164 1.148317,0.47666 z"
     fill="#fcd770"
     id="path118"
     style="stroke-width:0.541659" />
  <path
     d="m 37.860536,23.247062 h 3.434118 c 0.449577,1.262065 1.65206,2.166636 3.065791,2.166636 2.025805,0 3.612866,-1.847058 3.179539,-3.948695 -0.259997,-1.240399 -1.267483,-2.237052 -2.507882,-2.480798 -1.689976,-0.341246 -3.212038,0.633741 -3.732031,2.07997 l -3.428702,0.01083 1.457063,-0.904571 c 0.02167,-0.05417 0.03792,-0.108332 0.065,-0.162498 l -0.779989,-1.289148 0.888321,-0.888321 1.41373,-1.413731 1.289149,0.779989 c 0.05416,-0.02708 0.108331,-0.04333 0.162497,-0.065 l 0.368328,-1.467896 h 3.249955 l 0.368328,1.467896 c 0.05417,0.02167 0.108332,0.03792 0.162498,0.065 l 1.289149,-0.779989 1.424563,1.424564 0.877488,0.877488 -0.779989,1.289148 c 0.02708,0.05417 0.04333,0.108332 0.065,0.162498 l 1.467896,0.368328 v 3.249955 l -1.467896,0.368328 c -0.02167,0.05417 -0.03792,0.108332 -0.065,0.162498 l 0.779989,1.289148 -2.302051,2.302051 -1.289149,-0.779989 c -0.05417,0.02708 -0.108332,0.04333 -0.162498,0.065 l -0.368328,1.467897 h -2.708295 -0.54166 L 42.36714,27.195753 c -0.05417,-0.02167 -0.108332,-0.03792 -0.162497,-0.065 l -1.289149,0.779989 -2.302051,-2.302051 0.779989,-1.289148 c -0.02708,-0.05417 -0.04333,-0.108332 -0.065,-0.162498 z"
     fill="#ffc729"
     id="path120"
     style="stroke-width:0.541659" />
  <path
     d="m 51.402013,20.11573 -1.308648,-0.32662 0.693865,-1.155901 -2.078259,-2.550089 0.01133,-9.2090399 -14.15454,-0.061855 0.04482,10.4765869 h -1.276149 c 0.122415,-0.525951 0.192831,-1.068694 0.192831,-1.624978 0,-3.882612 -3.158956,-7.041568 -7.041568,-7.041568 -3.882613,0 -7.041569,3.158956 -7.041569,7.057276 0,0.601784 0.08287,1.190025 0.22858,1.757684 -1.076276,0.363453 -1.853557,1.380148 -1.853557,2.559881 v 12.999818 c 0,1.493354 1.214941,2.708296 2.708295,2.708296 h 7.041569 v 1.083318 h -2.038805 c -0.619658,0 -1.176484,0.344495 -1.453813,0.898071 L 23.23574,39.369003 V 42.20513 H 38.402195 V 39.369003 L 37.560998,37.687151 C 37.28421,37.133034 36.726843,36.788539 36.107727,36.788539 h -2.038805 v -1.083318 h 7.041568 c 1.493354,0 2.708296,-1.214942 2.708296,-2.708296 v -3.791613 h 2.589672 l 0.32662,-1.308107 1.156984,0.693324 2.89571,-2.896252 -0.693324,-1.156442 1.307565,-0.326079 z M 35.430151,7.75 h 12.471266 l -0.0094,7.986417 v 0 l -1.156984,0.693865 -0.32662,-1.308107 h -4.096026 l -0.326621,1.308649 -1.156984,-0.693866 -1.551311,1.551854 -3.847364,-0.01664 z m 2.764047,10.62213 -0.260538,0.260538 0.772405,1.286982 -0.988527,0.612075 -3.10804,0.007 0.0022,1.083318 7.070277,-0.01517 0.128373,-0.358037 c 0.458243,-1.27669 1.771225,-2.006305 3.117789,-1.736559 1.029694,0.206914 1.864933,1.036194 2.07943,2.062638 0.171164,0.82278 -0.02708,1.659102 -0.544368,2.295551 -0.517284,0.63645 -1.283732,1.001528 -2.10272,1.001528 -1.146151,0 -2.172595,-0.725282 -2.553923,-1.80535 l -0.127831,-0.361286 h -5.443133 c -0.895904,0 -1.624977,0.729073 -1.624977,1.624977 v 3.249954 c 0,0.298996 -0.242663,0.541659 -0.541659,0.541659 -0.298996,0 -0.541659,-0.242663 -0.541659,-0.541659 v -1.083318 c 0,-0.895904 -0.729073,-1.624977 -1.624977,-1.624977 -0.895905,0 -1.624978,0.729073 -1.624978,1.624977 v 1.083318 c 0,0.298996 -0.242663,0.541659 -0.541659,0.541659 h -2.16667 c -0.298996,0 -0.541659,-0.242663 -0.541659,-0.541659 v -0.590408 c 1.53452,-0.258913 2.708295,-1.593561 2.708295,-3.201205 V 22.38799 l 1.728976,-1.728976 c 0.665157,-0.665699 1.180817,-1.440813 1.530729,-2.286884 z m -13.87514,4.333273 h 4.333273 v 1.083318 c 0,1.1949 -0.971736,2.166636 -2.166636,2.166636 -1.1949,0 -2.166637,-0.971736 -2.166637,-2.166636 z m 0.541659,-6.49991 h -1.083318 c -0.59745,0 -1.083318,-0.485868 -1.083318,-1.083318 0,-0.59745 0.485868,-1.083318 1.083318,-1.083318 0.59745,0 1.083318,0.485868 1.083318,1.083318 z m 2.166637,5.416591 h -1.083319 v -4.333272 h 1.083319 z M 26.485695,9.7055836 c 3.285162,0 5.95825,2.6730884 5.95825,5.9739584 0,1.591395 -0.6202,3.087457 -1.745226,4.213025 l -1.728976,1.729517 h -0.859071 v -4.333272 h 1.083318 c 1.1949,0 2.166636,-0.971737 2.166636,-2.166637 0,-1.1949 -0.971736,-2.166636 -2.166636,-2.166636 -1.1949,0 -2.166636,0.971736 -2.166636,2.166636 v 1.083318 h -1.083319 v -1.083318 c 0,-1.1949 -0.971736,-2.166636 -2.166636,-2.166636 -1.1949,0 -2.166636,0.971736 -2.166636,2.166636 0,1.1949 0.971736,2.166637 2.166636,2.166637 h 1.083318 v 4.333272 H 24.001646 L 22.27267,19.893108 c -1.125026,-1.126109 -1.745226,-2.622171 -1.745226,-4.229274 0,-3.285162 2.673088,-5.9582504 5.958251,-5.9582504 z m 1.624977,6.4999094 v -1.083318 c 0,-0.59745 0.485868,-1.083318 1.083318,-1.083318 0.59745,0 1.083318,0.485868 1.083318,1.083318 0,0.59745 -0.485868,1.083318 -1.083318,1.083318 z m -2.580464,21.666364 h 2.038805 v 1.083318 h -2.91521 l 0.392162,-0.78378 c 0.09208,-0.184706 0.277329,-0.299538 0.484243,-0.299538 z m -1.21115,3.249955 v -1.083318 h 12.999818 v 1.083318 z m 11.788669,-3.249955 c 0.206914,0 0.392703,0.114832 0.484785,0.299538 l 0.391619,0.78378 h -2.915209 v -1.083318 z m -3.122123,1.083318 h -4.333273 v -3.249954 h 4.333273 z M 41.11049,34.621903 H 20.527444 c -0.895904,0 -1.624977,-0.729074 -1.624977,-1.624978 v -1.624977 h 6.499909 v 0.541659 c 0,0.895904 0.729073,1.624977 1.624978,1.624977 h 7.583227 c 0.895904,0 1.624977,-0.729073 1.624977,-1.624977 v -0.541659 h 6.499909 v 1.624977 c 0,0.895904 -0.729073,1.624978 -1.624977,1.624978 z m -5.95825,-3.249955 v 0.541659 c 0,0.298996 -0.242663,0.541659 -0.541659,0.541659 h -1.624977 v -1.083318 z m -3.249954,1.083318 h -2.166637 v -1.083318 h 2.166637 z m -3.249955,0 h -1.624977 c -0.298996,0 -0.541659,-0.242663 -0.541659,-0.541659 v -0.541659 h 2.166636 z M 42.735467,30.28863 h -23.833 V 19.997107 c 0,-0.70849 0.467452,-1.319482 1.114193,-1.536687 0.348287,0.809781 0.847696,1.556187 1.489562,2.198594 l 1.729518,1.728976 v 1.400731 c 0,1.607102 1.173775,2.94175 2.708295,3.201205 v 0.590408 c 0,0.895905 0.729074,1.624978 1.624978,1.624978 h 2.166636 c 0.895904,0 1.624977,-0.729073 1.624977,-1.624978 v -1.083318 c 0,-0.298996 0.242664,-0.541659 0.54166,-0.541659 0.298995,0 0.541659,0.242663 0.541659,0.541659 v 1.083318 c 0,0.895905 0.729073,1.624978 1.624977,1.624978 0.895904,0 1.624977,-0.729073 1.624977,-1.624978 V 24.33038 c 0,-0.298454 0.242663,-0.541659 0.541659,-0.541659 h 1.471146 l 0.999361,0.618574 -0.772405,1.286982 2.895709,2.896252 1.156984,-0.693324 0.326079,1.308107 h 0.423035 z m 7.583228,-6.922945 -1.055694,0.263788 -0.289246,0.109415 -0.251871,0.618575 0.70199,1.169983 -1.700268,1.700268 -1.169442,-0.70199 -0.660282,0.268663 -0.331496,1.327606 h -2.403883 l -0.263246,-1.055693 -0.109415,-0.289246 -0.619117,-0.251872 -1.169442,0.701991 -1.700267,-1.700268 0.70199,-1.169984 -0.233455,-0.567117 -0.0016,-0.0011 h 1.169442 c 0.621283,1.310273 1.953222,2.166636 3.426535,2.166636 1.146692,0 2.219719,-0.510784 2.943917,-1.401272 0.723657,-0.890488 1.00207,-2.05668 0.76374,-3.200122 -0.301163,-1.445146 -1.477105,-2.612422 -2.926043,-2.903834 -1.751725,-0.35262 -3.457952,0.511326 -4.202191,2.075096 l -1.197067,0.0027 0.04062,-0.0325 0.21558,-0.525409 -0.70199,-1.1689 1.700268,-1.699727 1.169442,0.701991 0.660824,-0.272455 0.331495,-1.32544 h 2.403883 l 0.330954,1.324898 0.660824,0.272455 1.169442,-0.70199 1.700268,1.699726 -0.70199,1.1689 0.268663,0.660825 1.328148,0.331495 z"
     id="path122"
     style="stroke-width:0.541659"
     sodipodi:nodetypes="ccccccccssscsssccsccccccsccssccccccccccccccccccccccccccccccssccsssssssssssscsccccccsssccssssccccccssccccssssccssssccccsscsssscsccccscccccsccccscccccsssccssssccsscsscccccccccsscccccscccscsssssssssssscccccccccccccccccccccccccccsccccccccccccccccccccc" />
  <path
     d="m 32.443945,20.538766 h 1.083318 v 1.083318 h -1.083318 z"
     id="path124"
     style="stroke-width:0.541659" />
  <path
     d="m 19.985785,25.955357 h 1.083319 v 1.083318 h -1.083319 z"
     id="path136"
     style="stroke-width:0.541659" />
  <path
     d="m 19.985785,28.121993 h 1.083319 v 1.083319 h -1.083319 z"
     id="path138"
     style="stroke-width:0.541659" />
  <path
     d="m 19.985785,23.788721 h 1.083319 v 1.083318 h -1.083319 z"
     id="path140"
     style="stroke-width:0.541659" />
  <path
     style="fill:#007d40;fill-opacity:1;stroke-width:0.25"
     d="M 290.9375,138.06265 283.5,137.99256 V 99.99628 62 H 333.25 383 l -0.006,31.9375 -0.006,31.9375 -4.35518,2.58514 c -2.39535,1.42182 -4.44446,2.58168 -4.55359,2.57745 -0.10914,-0.004 -0.7686,-2.29254 -1.46547,-5.08514 L 371.3461,120.875 h -16.47354 -16.47354 l -1.25585,5.0625 c -0.69072,2.78438 -1.37113,5.06196 -1.512,5.0613 -0.14088,-7.5e-4 -2.2249,-1.18083 -4.63115,-2.62258 l -4.37502,-2.62138 -6.2518,6.24758 -6.25181,6.24758 -7.87319,-0.0586 c -4.33026,-0.0323 -11.22007,-0.0902 -15.3107,-0.12872 z"
     id="path12674"
     transform="scale(0.125)" />
  <path
     fill="#ffffff"
     d="m 38.646172,10.635571 c 0.06677,-0.01898 0.07626,0.03287 0.163863,0.01728 0.09167,-0.01627 0.128948,-0.04846 0.128948,-0.04846 0,0 -0.06965,0.11184 -0.143189,0.118442 -0.05779,0.0053 -0.08846,-0.02169 -0.138614,-0.02271 -0.05897,-10e-4 -0.105577,0.01389 -0.105577,0.01389 0,0 0.02745,-0.05915 0.09456,-0.07846 z"
     id="path12721"
     style="stroke-width:0.169455" />
  <path
     fill="#ffffff"
     d="m 44.348669,10.648111 c -0.06676,-0.01914 -0.07625,0.03287 -0.163863,0.01728 -0.09168,-0.01627 -0.128786,-0.04829 -0.128786,-0.04829 0,0 0.06948,0.111678 0.14319,0.118443 0.05779,0.0053 0.08846,-0.02169 0.138614,-0.02271 0.05897,-0.0012 0.105564,0.0139 0.105564,0.0139 0,0 -0.02745,-0.05931 -0.09472,-0.07863 z"
     id="path12723"
     style="stroke-width:0.169455" />
  <path
     fill="#ffffff"
     d="m 40.508821,14.822294 c 0.21114,0.170302 0.570385,0.306544 1.007578,0.306544 0.439228,0 0.845242,-0.137258 1.055874,-0.308747 -0.227747,-0.06489 -0.619358,-0.124719 -1.059771,-0.135388 -0.403642,-0.0096 -0.781187,0.06914 -1.003681,0.137598 z"
     id="path12725"
     style="stroke-width:0.169455" />
  <path
     fill="#ffffff"
     d="m 39.787959,10.463913 -0.0065,3.470607 c -0.137936,-0.06948 -0.334165,-0.108451 -0.416859,-0.130982 -0.0061,-0.03136 -0.09235,-0.235543 -0.08592,-0.259944 0.0061,-0.02474 0.07372,-0.166913 0.0183,-0.389577 -0.04998,-0.200635 -0.387374,-0.481421 -0.632406,-0.601565 l -0.02203,0.01152 c 0.05422,-0.09236 0.08371,-0.212496 0.127091,-0.189451 0.08574,0.04525 0.231814,0.232154 0.272145,0.218597 0.04017,-0.01342 0.01406,-0.08574 0.06796,-0.07236 l 0.09252,0.160982 c 0.08439,0.05813 0.147934,0.14014 0.170641,0.152171 0.02203,0.01207 0.06862,0.03559 0.125397,0.03812 0.0566,0.0026 0.07709,-0.05592 0.07709,-0.05592 0,0 -0.0671,0.0015 -0.110145,-0.0266 -0.03694,-0.0244 -0.06151,-0.09304 -0.01071,-0.091 0.07643,0.0033 0.14285,0.06864 0.233339,-0.0043 0.04796,-0.03915 0.04661,-0.0727 0.04661,-0.0727 0,0 -0.07015,0.02305 -0.121506,0.02067 -0.05134,-0.002 -0.119635,-0.04914 -0.09184,-0.08862 0.02999,-0.0427 0.131998,-0.0034 0.188773,-0.05999 0.06423,-0.06389 0.04051,-0.118957 0.04051,-0.118957 0,0 -0.01206,0.03287 -0.10269,0.04864 -0.09067,0.01577 -0.101835,-0.01152 -0.14285,-0.03778 -0.03644,-0.02271 -0.07795,-0.07067 -0.07795,-0.07067 0,0 0.0096,-0.04948 0.04152,-0.07863 0.03203,-0.02932 0.106255,-0.02187 0.106255,-0.02187 0,0 -0.05423,-0.05931 -0.0937,-0.06117 -0.03931,-0.0015 -0.08608,-0.0092 -0.168269,0.06625 -0.03914,0.03575 -0.06862,0.06948 -0.08846,0.0949 l -0.172254,-0.178836 c 0,0 -0.151493,-0.09693 -0.122008,-0.141326 0.0754,-0.112857 0.143867,-0.240117 0.171997,-0.338571 0.01779,-0.06236 -0.05931,-0.258588 -0.140309,-0.365853 0.07609,-0.08287 0.249099,-0.272653 0.270111,-0.314169 0.01762,-0.03525 0.05151,-0.125736 0.218089,-0.319084 l 0.110986,-0.101673 c 0.05999,-0.09541 0.147087,-0.169285 0.159457,-0.194873 0.01166,-0.02456 0.03592,-0.07693 0.03592,-0.139631 0,-0.0627 -0.06541,-0.08236 -0.06541,-0.08236 0,0 0.0049,0.07422 -0.02389,0.122509 -0.02492,0.04203 -0.0993,0.07203 -0.0993,0.01609 0,-0.08421 0.06862,-0.160305 -0.01644,-0.256386 -0.04508,-0.05084 -0.08168,-0.04779 -0.08168,-0.04779 0,0 0.02847,0.07608 0.02847,0.132677 0,0.05644 -0.0483,0.133869 -0.0932,0.105238 -0.04846,-0.03084 -0.01017,-0.144715 -0.07506,-0.204702 -0.07337,-0.06762 -0.132351,-0.03897 -0.132351,-0.03897 0,0 0.0366,0.01166 0.05829,0.110484 0.02169,0.09896 -0.0077,0.112857 -0.03457,0.159288 -0.02372,0.04101 -0.0744,0.08879 -0.0744,0.08879 0,0 -0.0549,-0.0084 -0.08846,-0.04202 -0.03373,-0.03371 -0.02897,-0.115907 -0.02897,-0.115907 0,0 -0.0627,0.0627 -0.0627,0.106079 0,0.0432 -0.0061,0.09523 0.08066,0.181825 0.04152,0.04152 0.07982,0.07203 0.108627,0.09286 l -0.411945,0.462782 c -0.0222,0.0037 -0.0927,0.01342 -0.137427,0.0022 -0.05389,-0.01342 -0.151832,-0.0832 -0.05779,-0.0832 0.09388,0 0.140478,-0.10456 0.135564,-0.124881 -0.0095,-0.03999 -0.132514,-0.06794 -0.186401,-0.08152 -0.05355,-0.01315 -0.04067,-0.246218 -0.02101,-0.265875 0.02,-0.01999 0.264349,0.08134 0.271975,0.06286 0.01044,-0.02456 0.06371,-0.137258 0.0084,-0.168099 -0.01315,-0.0073 -0.02745,-0.0122 -0.01457,-0.04033 0.01356,-0.02897 0.01084,-0.06236 0.003,-0.07015 -0.02729,-0.02711 -0.157762,-0.09439 -0.197923,-0.107774 -0.04049,-0.01356 -0.117263,-0.06525 -0.230798,-0.111501 l 0.04609,-6.78e-4 c 0,0 0.01966,-0.03541 0.0249,-0.04897 0.01003,-0.02525 0.0205,-0.04661 -8.47e-4,-0.06778 -0.02119,-0.02135 -0.06083,-0.0366 -0.105401,-0.0366 -0.0622,0 -0.07219,0.09675 -0.106255,0.156576 -0.08235,0.0205 -0.09777,0.02558 -0.09777,0.02558 0,0 -0.0754,-0.06117 -0.129965,-0.08658 -0.07879,-0.03609 -0.187417,0.03542 -0.195212,0.115568 -0.01017,0.105401 0.133693,0.07235 0.08676,0.234526 -0.01166,0.04067 -0.159118,0.26723 -0.12049,0.26723 0.153018,0 0.225884,0.169455 0.219445,0.264858 -0.01543,0.221647 -0.297055,0.538019 -0.220122,0.502095 0.07337,-0.03405 0.341112,-0.0069 0.287395,0.08728 -0.05355,0.09405 -0.333487,0.620205 -0.266552,0.552931 0.04846,-0.04864 0.191145,-0.05779 0.167252,0.02085 -0.129464,0.422451 -0.20233,0.59682 -0.349925,0.878793 -0.201312,0.02695 -0.387204,-0.252996 -0.206904,-0.523276 0.02338,-0.08761 0.250285,-0.446175 0.263841,-0.660705 0.01315,-0.215038 -0.100819,-0.507348 -0.100819,-0.507348 0.147765,-0.107272 0.03778,-0.645285 -0.326878,-0.816942 -0.0068,0.02085 0.08795,0.08355 0.03355,0.20521 -0.02779,0.081 -0.105916,0.216732 -0.06693,0.377376 0.04423,0.25808 0.230289,0.196737 0.258588,0.268247 0.276212,0.685276 -0.316711,1.026727 -0.303324,1.456295 0.01356,0.430077 0.483624,0.443464 0.483624,0.443464 0.0449,0.05999 0.04456,0.06049 0.04456,0.06049 0.06541,0.08658 0.137258,0.185214 0.143698,0.212327 0.01234,0.04964 -0.09405,0.282312 -0.07914,0.368395 0.01057,0.06033 0.271976,0.350093 0.333488,0.436685 0.051,0.09541 -0.06659,0.308238 0.117601,0.473288 0.01098,-0.09236 0.05642,-0.21453 0.06507,-0.225037 0.138445,-0.0087 0.20843,0.08846 0.300444,0.329251 0.114389,-0.116083 0.100154,-0.295529 0.0427,-0.389068 0.0993,0.0103 0.153357,0.03897 0.321287,0.13997 0.02271,-0.213514 -0.205888,-0.328573 -0.205888,-0.328573 0,0 0.149459,-0.0083 0.222833,-0.0031 -0.0064,-0.02474 -0.07998,-0.08032 -0.141664,-0.111163 -0.06134,-0.03118 -0.362803,0 -0.362803,0 l -0.184367,-0.340435 c 0,0 0.184367,-0.216394 0.202838,-0.303155 0.01864,-0.08676 -0.09218,-0.290445 -0.02456,-0.321456 0.06762,-0.03084 0.269941,0.03152 0.362972,0.129803 0.09743,0.103205 -0.0993,0.39178 0.06117,0.414317 0.26452,0.0371 0.436855,0.513618 0.436855,0.513618 0,0 -0.01261,0.104886 -0.01864,0.129979 -0.0061,0.02474 0.123024,0.216224 0.123024,0.216224 l 0.123025,-0.247235 c 0.02219,-0.04491 0.181825,-0.05965 0.305696,-0.08897 l -10e-4,0.635456 c 0,0 0.182842,-0.08541 0.479727,-0.171319 v -4.19686 z m -1.447653,-0.142342 c -0.04101,0 -0.07406,-0.03237 -0.07406,-0.07201 0,-0.03999 0.03304,-0.07236 0.07406,-0.07236 0.04101,0 0.07422,0.03237 0.07422,0.07236 -1.69e-4,0.03965 -0.03339,0.07201 -0.07422,0.07201 z"
     id="path12727"
     style="stroke-width:0.169455" />
  <path
     fill="#ffffff"
     d="m 45.584504,11.243237 c 0.02829,-0.07151 0.21453,-0.01017 0.258588,-0.268417 0.03898,-0.160474 -0.03898,-0.296207 -0.06694,-0.377037 -0.05439,-0.121669 0.04017,-0.184367 0.03339,-0.20521 -0.364498,0.171827 -0.474474,0.709677 -0.326879,0.817112 0,0 -0.114049,0.29214 -0.100656,0.507178 0.01356,0.214699 0.240457,0.573097 0.263842,0.660874 0.18013,0.270281 -0.0056,0.55022 -0.206905,0.523277 -0.147765,-0.281973 -0.220461,-0.456173 -0.349924,-0.878793 -0.02406,-0.07845 0.118794,-0.06948 0.167082,-0.02101 0.0671,0.06727 -0.212835,-0.458714 -0.266383,-0.552762 -0.05372,-0.09405 0.214022,-0.121167 0.287396,-0.0871 0.07693,0.03575 -0.204702,-0.280618 -0.220122,-0.502265 -0.0068,-0.09523 0.06643,-0.264858 0.219274,-0.264858 0.03864,0 -0.10879,-0.226561 -0.120652,-0.26723 -0.04693,-0.162169 0.09693,-0.129125 0.08692,-0.234526 -0.0077,-0.08014 -0.116422,-0.151662 -0.195381,-0.115568 -0.0544,0.02525 -0.129979,0.0866 -0.129979,0.0866 0,0 -0.01541,-0.0052 -0.09777,-0.02558 -0.03405,-0.05999 -0.04388,-0.156576 -0.106079,-0.156576 -0.04456,0 -0.08423,0.01541 -0.105401,0.0366 -0.02135,0.02119 -0.01084,0.04254 -8.47e-4,0.06796 0.0054,0.01342 0.02474,0.04898 0.02474,0.04898 l 0.04609,6.77e-4 c -0.113535,0.04627 -0.190298,0.09795 -0.230797,0.111502 -0.04015,0.01342 -0.170811,0.08066 -0.197924,0.107773 -0.0079,0.0076 -0.01057,0.04101 0.003,0.06999 0.01288,0.02831 -0.0015,0.03321 -0.01457,0.04049 -0.05524,0.03084 -0.002,0.143359 0.0083,0.16793 0.0077,0.01848 0.251979,-0.08269 0.271975,-0.06286 0.01949,0.01983 0.03253,0.252826 -0.02119,0.266044 -0.05371,0.01356 -0.17691,0.04151 -0.1864,0.08134 -0.0049,0.02033 0.04169,0.124895 0.135564,0.124895 0.09422,0 -0.0039,0.06982 -0.05779,0.0832 -0.04474,0.01112 -0.115229,0.0015 -0.137428,-0.0022 l -0.411945,-0.462951 c 0.02881,-0.02101 0.0671,-0.05151 0.108628,-0.09304 0.08676,-0.08658 0.08066,-0.138444 0.08066,-0.181655 0,-0.04356 -0.0627,-0.106079 -0.0627,-0.106079 0,0 0.0046,0.08218 -0.02897,0.115907 -0.03373,0.03355 -0.08863,0.04202 -0.08863,0.04202 0,0 -0.05066,-0.04796 -0.07422,-0.08879 -0.02677,-0.04643 -0.05626,-0.06033 -0.03457,-0.159288 0.02153,-0.09879 0.05829,-0.110485 0.05829,-0.110485 0,0 -0.05913,-0.02863 -0.132352,0.0388 -0.06507,0.05981 -0.02677,0.17386 -0.07524,0.204701 -0.04491,0.02847 -0.0932,-0.04864 -0.0932,-0.105224 0,-0.0566 0.02847,-0.13269 0.02847,-0.13269 0,0 -0.03678,-0.0028 -0.08185,0.04796 -0.0849,0.09607 -0.01627,0.172166 -0.01627,0.256385 0,0.05592 -0.0744,0.02593 -0.0993,-0.01609 -0.02897,-0.04846 -0.0239,-0.122685 -0.0239,-0.122685 0,0 -0.06541,0.01983 -0.06541,0.08235 0,0.0627 0.02423,0.115229 0.03592,0.139631 0.0122,0.02559 0.09946,0.09948 0.159287,0.194873 l 0.110987,0.101673 c 0.166574,0.193348 0.200295,0.283667 0.218088,0.318914 0.02101,0.04169 0.194026,0.231475 0.270111,0.314339 -0.081,0.107258 -0.158271,0.303324 -0.140308,0.365853 0.02813,0.09846 0.09675,0.225714 0.171996,0.338571 0.02949,0.0444 -0.121831,0.141325 -0.121831,0.141325 l -0.172505,0.178945 c -0.01983,-0.02542 -0.0493,-0.05915 -0.08862,-0.09507 -0.08219,-0.07524 -0.128962,-0.06778 -0.168269,-0.06625 -0.03949,0.0016 -0.09372,0.06117 -0.09372,0.06117 0,0 0.07422,-0.0075 0.106255,0.02187 0.03186,0.02915 0.04152,0.07863 0.04152,0.07863 0,0 -0.04135,0.04796 -0.07779,0.07067 -0.04101,0.02627 -0.05235,0.05355 -0.14285,0.03778 -0.09066,-0.01559 -0.10269,-0.04863 -0.10269,-0.04863 0,0 -0.02372,0.0549 0.04051,0.118957 0.05676,0.0566 0.158779,0.01729 0.188603,0.05999 0.02779,0.03948 -0.04051,0.08642 -0.09184,0.08846 -0.05134,0.0026 -0.121492,-0.0205 -0.121492,-0.0205 0,0 -0.0012,0.03339 0.04677,0.0727 0.09033,0.07303 0.156745,0.0076 0.23317,0.0043 0.05084,-0.0022 0.02643,0.0666 -0.01071,0.091 -0.04304,0.02813 -0.110322,0.0266 -0.110322,0.0266 0,0 0.02051,0.05829 0.07711,0.05592 0.05694,-0.0023 0.103367,-0.02593 0.125559,-0.03812 0.02271,-0.0122 0.08626,-0.09422 0.170641,-0.15234 l 0.09252,-0.160982 c 0.05389,-0.01356 0.02797,0.05897 0.06812,0.07235 0.04033,0.01356 0.186569,-0.173352 0.272144,-0.218766 0.0432,-0.02287 0.07287,0.09727 0.127091,0.18945 l -0.02203,-0.01152 c -0.245032,0.119975 -0.582586,0.400931 -0.632406,0.601396 -0.05524,0.222664 0.0122,0.364836 0.0183,0.389746 0.0064,0.02456 -0.07982,0.228764 -0.08592,0.259944 -0.08287,0.02271 -0.278923,0.06168 -0.416859,0.130982 l -0.0062,-3.470606 h -0.471762 v 4.197229 c 0.296885,0.08592 0.479726,0.171149 0.479726,0.171149 l -0.0011,-0.6353 c 0.123865,0.02948 0.283498,0.0444 0.305697,0.08896 l 0.123024,0.247235 c 0,0 0.129125,-0.191654 0.123024,-0.216055 -0.006,-0.02508 -0.01846,-0.130141 -0.01846,-0.130141 0,0 0.172335,-0.476677 0.436854,-0.513618 0.160644,-0.02255 -0.03609,-0.31112 0.06134,-0.414148 0.09286,-0.09828 0.29519,-0.160474 0.362972,-0.129803 0.06762,0.03084 -0.04304,0.234865 -0.02456,0.321287 0.0183,0.08676 0.202668,0.303155 0.202668,0.303155 l -0.184367,0.340435 c 0,0 -0.30146,-0.03118 -0.362972,0 -0.0615,0.03102 -0.135049,0.08658 -0.141495,0.111162 0.07337,-0.0053 0.222664,0.0031 0.222664,0.0031 0,0 -0.228595,0.115229 -0.205888,0.328573 0.168099,-0.100819 0.222156,-0.12964 0.321456,-0.13997 -0.05744,0.09354 -0.07169,0.272992 0.04254,0.388899 0.09202,-0.240626 0.161999,-0.337554 0.300444,-0.329081 0.0087,0.01071 0.05389,0.132853 0.06507,0.225036 0.184028,-0.165049 0.0666,-0.377715 0.117602,-0.473457 0.06134,-0.08642 0.322981,-0.37619 0.333487,-0.436346 0.01491,-0.08626 -0.09167,-0.318915 -0.07913,-0.368565 0.0065,-0.02711 0.07829,-0.125735 0.143697,-0.212327 0,0 -3.38e-4,-6.78e-4 0.04456,-0.06067 0,0 0.470068,-0.01342 0.483625,-0.443463 0.01406,-0.429568 -0.578858,-0.770851 -0.302647,-1.456126 z m -0.929799,-0.909126 c -0.04101,0 -0.07422,-0.03237 -0.07422,-0.07201 0,-0.04015 0.03321,-0.07253 0.07422,-0.07253 0.04101,0 0.07406,0.03237 0.07406,0.07253 0,0.03965 -0.03304,0.07201 -0.07406,0.07201 z"
     id="path12729"
     style="stroke-width:0.169455" />
  <path
     fill="#ffffff"
     d="m 43.391588,8.361825 -0.281126,0.2811258 0.27672,0.2768893 -0.824568,0.8243979 8.47e-4,-0.3162026 H 41.931225 V 10.444426 H 41.069547 V 9.4280354 H 40.442055 V 9.717803 l -0.801183,-0.7232333 0.346705,-0.3465353 -0.281464,-0.2814646 -0.902687,0.9026864 0.281295,0.2814648 0.359753,-0.3595836 0.997412,0.9192926 -0.0026,0.353314 v 4.149104 c 0.298919,-0.07337 0.67765,-0.134547 1.089256,-0.124882 0.400422,0.01003 0.75543,0.06864 1.033845,0.134209 V 10.4546 10.137042 l 1.020796,-1.0209663 0.429738,0.4295683 0.03118,-0.2812953 0.02932,-0.2207997 z m -1.883153,5.837214 c 0,0 -0.429568,-0.17725 -0.4882,-0.702899 -0.07151,-0.638167 0.165219,-0.639354 0.296208,-0.981483 0.134208,-0.350433 -0.169116,-0.688495 -0.169116,-0.688495 0,0 0.424823,0.0505 0.562082,0.475151 0.105916,0.326879 -0.102012,0.408386 -0.115067,0.694087 -0.0091,0.209277 0.253335,0.308239 0.275195,0.567505 0.03423,0.39788 -0.361109,0.636134 -0.361109,0.636134 z"
     id="path12731"
     style="stroke-width:0.169455" />
  <path
     fill="#9c9e9f"
     d="m 15.516342,46.60288 c 0,0.556625 -0.024,0.52675 0.51475,0.5925 v 0.155625 h -1.61025 V 47.19538 c 0.53875,-0.06575 0.514875,-0.03587 0.514875,-0.5925 v -3.323375 h -0.53875 c -0.520875,0 -0.640625,0.329125 -0.838125,0.72425 h -0.149625 l 0.1615,-0.915875 h 3.310375 l 0.161625,0.915875 h -0.149625 c -0.1975,-0.395125 -0.31725,-0.72425 -0.838125,-0.72425 h -0.53875 v 3.323375 z"
     id="path12733"
     style="stroke-width:0.125" />
  <path
     fill="#9c9e9f"
     d="m 18.300467,45.600005 c 0,0.838 0.227501,1.4785 1.119376,1.4785 0.820125,0 1.251125,-0.550625 1.251125,-1.50825 V 43.90613 c 0,-0.12575 -0.02388,-0.2275 -0.03588,-0.32325 -0.03,-0.2155 -0.2335,-0.299375 -0.514875,-0.329375 V 43.09788 h 1.41275 v 0.155625 c -0.287375,0.03 -0.484875,0.113875 -0.514875,0.329375 -0.012,0.09575 -0.03587,0.1975 -0.03587,0.32325 v 1.688 c 0,1.286875 -0.820125,1.76575 -1.592375,1.76575 -1.275125,0 -1.670125,-0.6465 -1.670125,-1.729875 v -1.78375 c 0,-0.55675 0.02388,-0.52675 -0.514875,-0.59275 V 43.09788 h 1.610375 v 0.155625 c -0.538875,0.066 -0.514875,0.03613 -0.514875,0.59275 v 1.75375 z"
     id="path12735"
     style="stroke-width:0.125" />
  <path
     fill="#9c9e9f"
     d="m 27.680217,46.277255 -0.17975,0.74825 c 0,0.131625 -0.107625,0.1555 -0.27525,0.2095 -0.227374,0.07775 -0.6465,0.1795 -1.167249,0.1795 -1.227125,0 -2.334626,-0.586375 -2.334626,-2.190625 0,-0.921875 0.784126,-2.143 2.394375,-2.143 0.58075,0 0.856126,0.10775 1.149376,0.203625 0.16775,0.05387 0.233374,0.137625 0.233374,0.233375 v 0.772125 h -0.1555 c -0.018,-0.47875 -0.32325,-0.999625 -1.275125,-0.999625 -1.1195,0 -1.658125,0.808 -1.664125,1.8855 -0.006,1.191 0.53875,2.029 1.759875,2.029 0.79625,0 1.167375,-0.454875 1.358875,-0.92775 h 0.15575 z"
     id="path12737"
     style="stroke-width:0.125" />
  <path
     fill="#9c9e9f"
     d="m 29.068967,42.95513 v 3.63925 c 0,0.538875 -0.02988,0.520875 0.479,0.59275 v 0.1555 h -1.49675 v -0.1555 c 0.509,-0.07187 0.479125,-0.054 0.479125,-0.59275 v -3.052625 c 0,-0.16175 -0.07212,-0.263375 -0.2275,-0.263375 h -0.251625 v -0.155625 c 0.359125,-0.012 0.742375,-0.08388 1.00575,-0.179625 z"
     id="path12739"
     style="stroke-width:0.125" />
  <path
     fill="#9c9e9f"
     d="m 31.786968,47.41438 c -0.08988,-0.107625 -0.13775,-0.29325 -0.13775,-0.47275 l -0.467125,0.31125 c -0.1375,0.08975 -0.305,0.1615 -0.49075,0.1615 -0.395125,0 -0.724375,-0.347125 -0.724375,-0.784125 0,-0.568625 0.335375,-0.748 1.03575,-1.0235 l 0.6465,-0.2515 c 0,-0.52075 -0.13775,-0.867875 -0.509,-0.867875 -0.365126,0 -0.490875,0.32925 -0.634376,0.54475 -0.018,0.02987 -0.042,0.02987 -0.07775,0.02387 l -0.20375,-0.04787 c -0.03575,-0.01212 -0.05388,-0.036 -0.04788,-0.078 l 0.08988,-0.317125 c 0.036,-0.11375 0.10175,-0.161625 0.17375,-0.1855 0.27525,-0.10775 0.47875,-0.149625 0.742125,-0.149625 0.7005,0 1.005875,0.31125 1.005875,0.96375 v 1.32875 c 0,0.305375 0.018,0.56275 0.419125,0.407 l 0.03587,0.16775 z m -0.13775,-1.8315 c -0.527,0.1975 -1.143376,0.341125 -1.143376,0.951625 0,0.2815 0.185501,0.50875 0.460876,0.50875 0.311374,0 0.682625,-0.203625 0.682625,-0.993625 v -0.46675 z"
     id="path12741"
     style="stroke-width:0.125" />
  <path
     fill="#9c9e9f"
     d="m 35.420467,47.41438 c -0.08988,-0.101625 -0.137749,-0.28725 -0.137749,-0.460875 l -0.526751,0.30525 c -0.251499,0.1435 -0.383125,0.1555 -0.556749,0.1555 -0.688501,0 -0.874,-0.496875 -0.874,-1.16725 V 44.93638 c 0,-0.275375 -0.1855,-0.2515 -0.479,-0.2515 v -0.1555 c 0.32325,-0.012 0.724375,-0.084 1.005875,-0.2515 l 0.012,0.012 v 1.903625 c 0,0.448875 0.07188,0.867875 0.598625,0.867875 0.55675,0 0.820125,-0.299375 0.820125,-1.18525 v -0.93975 c 0,-0.275375 -0.185625,-0.2515 -0.478875,-0.2515 v -0.1555 c 0.32925,-0.012 0.73025,-0.084 1.005625,-0.2515 l 0.012,0.012 v 2.2805 c 0,0.305375 0.018,0.56275 0.419,0.407 l 0.036,0.16775 z"
     id="path12743"
     style="stroke-width:0.125" />
  <path
     fill="#9c9e9f"
     d="m 36.743467,46.58238 h 0.155375 c -0.0058,0.41925 0.305375,0.6225 0.65275,0.6225 0.347126,0 0.550625,-0.26325 0.550625,-0.51475 0,-0.389 -0.311125,-0.52675 -0.670375,-0.784 -0.484875,-0.35325 -0.682375,-0.449 -0.682375,-0.844 0,-0.502875 0.466875,-0.784125 0.95775,-0.784125 0.191501,0 0.431,0.012 0.70625,0.10175 v 0.598375 h -0.155625 c -0.018,-0.203375 -0.1975,-0.49075 -0.538875,-0.49075 -0.25125,0 -0.461,0.149625 -0.461,0.383 0,0.287375 0.305375,0.443 0.742375,0.75425 0.562625,0.395 0.6345,0.616625 0.6345,0.891875 0,0.6225 -0.56275,0.897875 -1.0835,0.897875 -0.32925,0 -0.586625,-0.05375 -0.808125,-0.1615 v -0.6705 z"
     id="path12745"
     style="stroke-width:0.125" />
  <path
     fill="#9c9e9f"
     d="m 40.963718,44.649005 -0.245375,0.11975 h -0.664376 v 1.57425 c 0,0.2335 0.012,0.71225 0.406875,0.71225 0.16175,0 0.317375,-0.012 0.461,-0.07175 l 0.04188,0.155625 -0.694501,0.27525 c -0.419,0 -0.754125,-0.125625 -0.754125,-0.945625 v -1.7 h -0.479 V 44.49338 h 0.479 v -0.6285 c 0.10775,-0.113625 0.227375,-0.221375 0.377126,-0.335125 h 0.161749 v 0.963625 h 0.909751 z"
     id="path12747"
     style="stroke-width:0.125" />
  <path
     fill="#9c9e9f"
     d="m 42.280717,42.95513 v 1.8495 c 0.2575,-0.299125 0.688375,-0.526625 1.209125,-0.526625 0.730375,0 0.874,0.437 0.874,1.059625 v 1.256875 c 0,0.538875 -0.03,0.520875 0.479,0.59275 v 0.1555 h -1.49675 v -0.1555 c 0.508875,-0.07187 0.479,-0.054 0.479,-0.59275 V 45.49313 c 0,-0.37725 -0.024,-0.90375 -0.6585,-0.90375 -0.76625,0 -0.886,0.6585 -0.886,1.274875 v 0.73025 c 0,0.538875 -0.02988,0.520875 0.478875,0.59275 v 0.1555 h -1.496624 v -0.1555 c 0.508875,-0.07187 0.479,-0.054 0.479,-0.59275 v -3.05275 c 0,-0.16175 -0.07188,-0.263375 -0.227501,-0.263375 h -0.251499 v -0.155625 c 0.35925,-0.012 0.7425,-0.08388 1.005875,-0.179625 z"
     id="path12749"
     style="stroke-width:0.125" />
  <path
     fill="#9c9e9f"
     d="m 47.081592,47.41438 c -0.08987,-0.107625 -0.137874,-0.29325 -0.137874,-0.47275 l -0.466751,0.31125 c -0.137874,0.08975 -0.30525,0.1615 -0.490875,0.1615 -0.395124,0 -0.724374,-0.347125 -0.724374,-0.784125 0,-0.568625 0.335375,-0.748 1.035624,-1.0235 l 0.646376,-0.2515 c 0,-0.52075 -0.13775,-0.867875 -0.508751,-0.867875 -0.364999,0 -0.49075,0.32925 -0.6345,0.54475 -0.01787,0.02987 -0.04187,0.02987 -0.07775,0.02387 l -0.203501,-0.04787 c -0.03587,-0.01212 -0.054,-0.036 -0.04787,-0.078 l 0.08975,-0.317125 c 0.036,-0.11375 0.101625,-0.161625 0.173625,-0.1855 0.275375,-0.10775 0.478875,-0.149625 0.74225,-0.149625 0.700375,0 1.00575,0.31125 1.00575,0.96375 v 1.32875 c 0,0.305375 0.018,0.56275 0.419,0.407 l 0.036,0.16775 z m -0.137749,-1.8315 c -0.526751,0.1975 -1.14325,0.341125 -1.14325,0.951625 0,0.2815 0.185625,0.50875 0.461,0.50875 0.31125,0 0.682374,-0.203625 0.682374,-0.993625 v -0.46675 z"
     id="path12751"
     style="stroke-width:0.125" />
  <path
     fill="#9c9e9f"
     d="m 49.266593,42.95513 v 3.63925 c 0,0.538875 -0.03,0.520875 0.478875,0.59275 v 0.1555 h -1.496626 v -0.1555 c 0.508875,-0.07187 0.478875,-0.054 0.478875,-0.59275 v -3.052625 c 0,-0.16175 -0.07175,-0.263375 -0.227374,-0.263375 h -0.2515 v -0.155625 c 0.359125,-0.012 0.74225,-0.08388 1.005625,-0.179625 z"
     id="path12753"
     style="stroke-width:0.125" />
</svg>
